<?xml version="1.0" encoding="utf-8"?>
<!-- Generator: Adobe Illustrator 27.8.1, SVG Export Plug-In . SVG Version: 6.00 Build 0)  -->
<svg version="1.1" id="Layer_1" xmlns="http://www.w3.org/2000/svg" xmlns:xlink="http://www.w3.org/1999/xlink" x="0px" y="0px"
	 viewBox="0 0 512 512" style="enable-background:new 0 0 512 512;" xml:space="preserve">
<g transform="translate(0.000000,512.000000) scale(0.100000,-0.100000)">
	<path d="M2380,5114c-19-2-78-9-130-14c-330-36-695-160-990-336c-375-224-680-529-904-904c-175-292-291-632-338-990
		c-16-123-16-497,0-620c82-623,356-1150,820-1581c256-239,575-425,922-539C2034,39,2251,6,2560,6c228,0,329,9,530,50
		c689,141,1304,583,1674,1204c175,292,291,632,338,990c16,123,16,497,0,620c-47,358-163,698-338,990c-224,375-529,680-904,904
		c-289,173-634,291-980,336C2792,5112,2442,5121,2380,5114z M2765,4810c583-54,1146-347,1517-790c225-268,393-596,471-921
		c49-201,61-309,61-539s-12-338-61-539c-78-325-246-653-471-921c-371-443-934-736-1517-790c-598-55-1196,135-1665,528
		c-354,296-624,732-733,1183c-49,201-61,309-61,539s12,338,61,539c96,398,333,810,626,1088C1473,4642,2118,4869,2765,4810z"/>
	<path d="M1440,3654c-201-53-378-219-445-419c-23-70-35-189-23-233c25-88,117-131,202-93c59,26,80,62,94,161c14,97,39,149,103,211
		c152,148,420,105,516-84c14-28,31-88,38-133c17-99,32-126,91-155c71-34,136-15,188,55c48,64,12,273-69,407c-85,138-247,255-403,288
		C1659,3674,1507,3672,1440,3654z"/>
	<path d="M3375,3656c-268-65-474-317-479-583c-1-68,2-86,20-109c52-70,117-89,188-55c59,29,74,56,91,155c7,45,24,105,38,133
		c96,189,364,232,516,84c64-62,89-114,103-211c14-99,35-135,94-161c61-27,117-18,160,25s54,88,44,178c-17,150-72,261-185,374
		c-88,88-178,140-290,169C3605,3673,3446,3674,3375,3656z"/>
</g>
</svg>
