<?xml version="1.0" encoding="utf-8"?>
<!-- Generator: Adobe Illustrator 27.8.1, SVG Export Plug-In . SVG Version: 6.00 Build 0)  -->
<svg version="1.1" id="Layer_1" xmlns="http://www.w3.org/2000/svg" xmlns:xlink="http://www.w3.org/1999/xlink" x="0px" y="0px"
	 viewBox="0 0 512 512" style="enable-background:new 0 0 512 512;" xml:space="preserve">
<g transform="translate(0.000000,512.000000) scale(0.100000,-0.100000)">
	<path d="M2370,5113c-379-36-661-116-980-278c-378-193-717-497-965-865c-104-156-232-419-294-605c-49-150-89-321-113-490
		c-17-118-17-512,0-630c42-295,120-553,242-800c137-280,272-468,494-691c221-220,412-357,681-489c188-92,309-137,500-185
		c500-126,1002-102,1490,71c149,53,407,182,540,271c365,243,667,578,866,963c181,348,271,694,286,1090c15,426-73,832-263,1214
		c-124,250-263,447-458,648c-216,224-428,378-711,518c-296,146-572,225-900,255C2683,5119,2452,5121,2370,5113z M2765,4810
		c785-72,1480-553,1825-1264c106-217,166-409,206-661c25-154,25-496,0-650c-40-252-100-444-206-661c-223-458-585-820-1045-1045
		c-216-105-408-165-660-205c-154-25-496-25-650,0c-433,70-808,240-1135,514c-498,417-800,1067-800,1722s301,1302,800,1723
		C1564,4673,2169,4865,2765,4810z"/>
	<path d="M900,2679c-35.4-24.5-80-60-91-102c-24-91,26-426,93-616c96-276,279-548,496-737c805-704,2030-542,2624,345
		c167,250,261,526,289,844c7,87,7,137,0,164c-12,43-56.4,75.8-94,102c-317,221-877,600.1-1659.6,601C1820,3280.9,1320,2970,900,2679
		z M4010,2386c0-2-7-43-15-92c-78-454-377-855-790-1058c-208-103-409-149-645-149c-394,0-747,146-1027,424c-231,230-360,489-418,842
		l-6,37c0,0,501,571.9,1448.4,570C3340,3000,4010,2388,4010,2386z"/>
</g>
</svg>
