<?xml version="1.0" encoding="utf-8"?>
<!-- Generator: Adobe Illustrator 27.8.1, SVG Export Plug-In . SVG Version: 6.00 Build 0)  -->
<svg version="1.1" id="Layer_1" xmlns="http://www.w3.org/2000/svg" xmlns:xlink="http://www.w3.org/1999/xlink" x="0px" y="0px"
	 viewBox="0 0 512 512" style="enable-background:new 0 0 512 512;" xml:space="preserve">
<g transform="translate(0.000000,512.000000) scale(0.100000,-0.100000)">
	<path d="M2370,5113c-379-36-661-116-980-278c-378-193-717-497-965-865c-42-63-114-191-160-285C97,3345,17,3024,3,2645
		c-15-426,73-832,263-1214c133-269,271-459,488-677c221-220,412-357,681-489c188-92,309-137,500-185c500-126,1002-102,1490,71
		c150,53,408,183,540,271c302,202,573,480,769,788c72,113,188,353,235,486c235,662,194,1372-115,1993c-124,250-263,447-458,648
		c-214,222-430,379-711,518c-296,146-572,225-900,255C2683,5119,2452,5121,2370,5113z M2915,4771c628-106,1158-448,1511-977
		c179-267,296-573,351-909c24-153,24-497,0-650c-108-668-474-1222-1042-1580c-243-153-537-261-850-312c-154-24-497-24-650,1
		C1578,451,1037,800,678,1350c-168,257-281,557-335,885c-24,153-24,497,0,650c81,497,291,912,636,1255c382,381,862,605,1401,654
		C2488,4804,2798,4790,2915,4771z"/>
	<path d="M1285,2006c-66-29-105-106-91-180s192-308,321-422c153-135,363-258,545-318c173-57,268-70,500-70c185,0,229,3,316,22
		c153,33,246,66,389,137c255,127,461,313,613,555c42,67,47,81,47,132c0,95-58,153-155,153c-75,0-99-17-166-119
		c-243-367-609-566-1044-566c-206,0-380,40-553,126c-203,102-350,231-480,425c-34,51-74,101-89,112C1405,2018,1325,2025,1285,2006z"
		/>
</g>
</svg>
